<svg xmlns="http://www.w3.org/2000/svg" width="16" height="16" viewBox="0 0 16 16">
  <path fill="#fff" d="M8 0a8 8 0 0 0-8 8 8 8 0 0 0 5.29 7.53c.39.07.53-.17.53-.38v-1.32c-2.16.47-2.61-1.04-2.61-1.04-.35-.91-.86-1.16-.86-1.16-.7-.49.05-.48.05-.48.77.05 1.18.79 1.18.79.69 1.19 1.82.85 2.27.65.07-.49.27-.85.5-1.05-1.75-.2-3.59-.87-3.59-3.88 0-.86.3-1.56.79-2.11-.08-.2-.34-1.01.07-2.1 0 0 .67-.21 2.2.81.64-.18 1.32-.26 2-.26.68 0 1.36.08 2 .26 1.53-1.02 2.2-.81 2.2-.81.4 1.09.15 1.9.08 2.1.49.55.79 1.26.79 2.11 0 3.02-1.84 3.68-3.6 3.87.28.24.53.72.53 1.46v2.17c0 .22.14.46.54.38A8 8 0 0 0 16 8 8 8 0 0 0 8 0z"/>
</svg>

