<svg xmlns="http://www.w3.org/2000/svg" version="1.1" xmlns:xlink="http://www.w3.org/1999/xlink" xmlns:svgjs="http://svgjs.dev/svgjs" width="1500" height="1406" viewBox="0 0 1500 1406"><g transform="matrix(1,0,0,1,0.000020664062503783498,0)"><svg viewBox="0 0 384 360" data-background-color="#282634" preserveAspectRatio="xMidYMid meet" height="1406" width="1500" xmlns="http://www.w3.org/2000/svg" xmlns:xlink="http://www.w3.org/1999/xlink"><g id="tight-bounds" transform="matrix(1,0,0,1,0.000005289999990054639,0)"><svg viewBox="0 0 384 360" height="360" width="384"><g><svg></svg></g><g><svg viewBox="0 0 384 360" height="360" width="384"><g><path transform="translate(-42.61557,-54.61557) scale(4.69231,4.69231)" d="M86.305 42.635v-9.002c0-4.501-4.084-8.184-9.076-8.184h-19.864c-3.239 0-6.039-1.882-7.365-4.613-1.326 2.73-4.126 4.613-7.365 4.613h-19.864c-4.992 0-9.076 3.683-9.076 8.184v9.002c0 3.239-1.882 6.039-4.613 7.365 2.73 1.326 4.613 4.126 4.613 7.365v9.002c0 4.501 4.084 8.184 9.076 8.184h19.864c3.239 0 6.039 1.882 7.365 4.613 1.326-2.73 4.126-4.613 7.365-4.613h19.864c4.992 0 9.076-3.683 9.076-8.184v-9.002c0-3.239 1.882-6.039 4.613-7.365-2.73-1.326-4.613-4.126-4.613-7.365z" fill="#ff4057" fill-rule="nonzero" stroke="none" stroke-width="1" stroke-linecap="butt" stroke-linejoin="miter" stroke-miterlimit="10" stroke-dasharray="" stroke-dashoffset="0" font-family="none" font-weight="none" font-size="none" text-anchor="none" style="mix-blend-mode: normal" data-fill-palette-color="tertiary"></path></g><g transform="matrix(1,0,0,1,76.80000000000003,143.67976777112267)"><svg viewBox="0 0 230.39999999999995 72.64046445775463" height="72.64046445775463" width="230.39999999999995"><g><svg viewBox="0 0 406.10165061782993 128.03564460911446" height="72.64046445775463" width="230.39999999999995"><g><rect width="5.342619704454687" height="128.03564460911446" x="156.37311545668763" y="0" fill="#ff4057" opacity="1" stroke-width="0" stroke="transparent" fill-opacity="1" class="rect-qz-0" data-fill-palette-color="primary" rx="1%" id="qz-0" data-palette-color="#ff4057"></rect></g><g transform="matrix(1,0,0,1,175.70165061782996,0.31849662838087767)"><svg viewBox="0 0 230.39999999999998 127.3986513523527" height="127.3986513523527" width="230.39999999999998"><g id="textblocktransform"><svg viewBox="0 0 230.39999999999998 127.3986513523527" height="127.3986513523527" width="230.39999999999998" id="textblock"><g><svg viewBox="0 0 230.39999999999998 127.3986513523527" height="127.3986513523527" width="230.39999999999998"><g transform="matrix(1,0,0,1,0,0)"><svg width="230.39999999999998" viewBox="2.6400000000000037 -31.379999999999995 155.11999999999998 82.55" height="127.3986513523527" data-palette-color="#282634"><svg></svg><svg></svg><g class="wordmark-text-0" data-fill-palette-color="quaternary" id="text-0"><path d="M4.02-1.9v-27.58c0-0.573 0.193-1.033 0.58-1.38 0.38-0.347 0.84-0.52 1.38-0.52v0h15.4c0.573 0 0.983 0.173 1.23 0.52 0.253 0.347 0.38 0.72 0.38 1.12 0 0.4-0.127 0.773-0.38 1.12-0.247 0.347-0.657 0.52-1.23 0.52v0h-13.33v10.17h12.81c0.573 0 0.997 0.173 1.27 0.52 0.267 0.34 0.4 0.713 0.4 1.12 0 0.4-0.153 0.763-0.46 1.09-0.307 0.327-0.71 0.49-1.21 0.49v0h-12.81v12.81c0 0.58-0.153 1.023-0.46 1.33v0c-1 0.727-1.96 0.763-2.88 0.11v0c-0.38-0.267-0.61-0.747-0.69-1.44zM38.97-13.28v0c0.8 0 1.603 0.02 2.41 0.06v0-1.84c0-2.987-1.667-4.48-5-4.48v0c-1.493 0-2.587 0.133-3.28 0.4v0c-1.227 0.46-2.107 0.853-2.64 1.18-0.533 0.327-0.953 0.49-1.26 0.49-0.307 0-0.597-0.117-0.87-0.35-0.267-0.227-0.4-0.533-0.4-0.92v0c0-0.307 0.173-0.613 0.52-0.92v0c1.8-1.72 4.463-2.58 7.99-2.58v0c4.06 0 6.663 1.36 7.81 4.08v0c0.387 0.96 0.58 2.07 0.58 3.33v0l-0.12 13.28c0 0.5-0.17 0.883-0.51 1.15-0.347 0.267-0.73 0.4-1.15 0.4-0.427 0-0.81-0.113-1.15-0.34-0.347-0.233-0.52-0.617-0.52-1.15v0-2.07c-0.92 1.993-2.567 3.237-4.94 3.73v0c-0.733 0.193-1.557 0.29-2.47 0.29-0.92 0-1.83-0.133-2.73-0.4-0.9-0.267-1.697-0.69-2.39-1.27v0c-1.42-1.187-2.13-2.793-2.13-4.82v0c0-4.833 4.083-7.25 12.25-7.25zM41.38-8.74v-1.95c-0.613 0.08-1.323 0.12-2.13 0.12-0.8 0-1.623 0.007-2.47 0.02-0.84 0.02-1.643 0.117-2.41 0.29-0.767 0.173-1.457 0.433-2.07 0.78v0c-1.307 0.687-1.997 1.817-2.07 3.39v0c0 1.227 0.497 2.183 1.49 2.87v0c0.767 0.613 1.86 0.94 3.28 0.98v0c1.727 0 3.22-0.557 4.48-1.67v0c1.153-1.073 1.787-2.683 1.9-4.83zM66.49-1.61v-12.53c0-1.76-0.497-3.14-1.49-4.14v0c-0.88-0.84-1.903-1.26-3.07-1.26-1.173 0-2.16 0.133-2.96 0.4-0.807 0.267-1.517 0.707-2.13 1.32v0c-1.3 1.227-1.95 2.97-1.95 5.23v0 10.98c0 0.54-0.193 0.943-0.58 1.21-0.38 0.267-0.8 0.4-1.26 0.4v0c-0.46 0-0.843-0.143-1.15-0.43-0.307-0.287-0.46-0.68-0.46-1.18v0-28.05c0-0.533 0.19-0.933 0.57-1.2 0.387-0.267 0.77-0.4 1.15-0.4v0c0.46 0 0.863 0.123 1.21 0.37 0.347 0.247 0.52 0.657 0.52 1.23v0 11.56c0.533-1.34 1.527-2.377 2.98-3.11v0c1.347-0.687 2.68-1.03 4-1.03 1.32 0 2.44 0.163 3.36 0.49 0.92 0.327 1.763 0.797 2.53 1.41v0c1.533 1.453 2.3 3.597 2.3 6.43v0 12.3c0 0.54-0.203 0.943-0.61 1.21-0.4 0.267-0.81 0.4-1.23 0.4v0c-0.46 0-0.863-0.143-1.21-0.43-0.347-0.287-0.52-0.68-0.52-1.18zM87.13-13.28v0c0.8 0 1.603 0.02 2.41 0.06v0-1.84c0-2.987-1.667-4.48-5-4.48v0c-1.493 0-2.587 0.133-3.28 0.4v0c-1.22 0.46-2.1 0.853-2.64 1.18-0.533 0.327-0.953 0.49-1.26 0.49-0.307 0-0.597-0.117-0.87-0.35-0.267-0.227-0.4-0.533-0.4-0.92v0c0-0.307 0.173-0.613 0.52-0.92v0c1.8-1.72 4.463-2.58 7.99-2.58v0c4.06 0 6.663 1.36 7.81 4.08v0c0.387 0.96 0.58 2.07 0.58 3.33v0l-0.12 13.28c0 0.5-0.17 0.883-0.51 1.15-0.347 0.267-0.73 0.4-1.15 0.4-0.427 0-0.81-0.113-1.15-0.34-0.347-0.233-0.52-0.617-0.52-1.15v0-2.07c-0.92 1.993-2.567 3.237-4.94 3.73v0c-0.727 0.193-1.55 0.29-2.47 0.29-0.92 0-1.83-0.133-2.73-0.4-0.9-0.267-1.697-0.69-2.39-1.27v0c-1.413-1.187-2.12-2.793-2.12-4.82v0c0-4.833 4.08-7.25 12.24-7.25zM89.54-8.74v-1.95c-0.613 0.08-1.323 0.12-2.13 0.12-0.8 0-1.623 0.007-2.47 0.02-0.84 0.02-1.643 0.117-2.41 0.29-0.767 0.173-1.457 0.433-2.07 0.78v0c-1.3 0.687-1.99 1.817-2.07 3.39v0c0 1.227 0.5 2.183 1.5 2.87v0c0.76 0.613 1.85 0.94 3.27 0.98v0c1.727 0 3.22-0.557 4.48-1.67v0c1.153-1.073 1.787-2.683 1.9-4.83zM115.11-1.61v-2.01c-1.913 2.72-4.517 4.08-7.81 4.08v0c-2.987 0-5.323-1.187-7.01-3.56v0c-1.46-2.147-2.19-4.753-2.19-7.82v0c0-5.133 1.707-8.58 5.12-10.34v0c1.147-0.653 2.307-0.98 3.48-0.98 1.167 0 2.133 0.067 2.9 0.2 0.767 0.133 1.493 0.393 2.18 0.78v0c1.46 0.727 2.57 1.72 3.33 2.98v0-11.38c0-0.573 0.193-0.983 0.58-1.23 0.38-0.247 0.8-0.37 1.26-0.37v0c0.46 0 0.863 0.123 1.21 0.37 0.347 0.247 0.52 0.657 0.52 1.23v0 28.05c0 0.54-0.193 0.943-0.58 1.21-0.38 0.267-0.723 0.4-1.03 0.4-0.307 0-0.567-0.03-0.78-0.09-0.207-0.053-0.407-0.177-0.6-0.37v0c-0.387-0.267-0.58-0.65-0.58-1.15zM107.99-2.24v0c4.673 0 7.01-3.007 7.01-9.02v0c0-3.873-1.17-6.403-3.51-7.59v0c-0.88-0.46-1.933-0.69-3.16-0.69-1.227 0-2.24 0.24-3.04 0.72-0.807 0.48-1.477 1.12-2.01 1.92v0c-0.96 1.493-1.44 3.39-1.44 5.69v0c0 3.413 0.803 5.923 2.41 7.53v0c0.92 0.96 2.167 1.44 3.74 1.44z" fill="#282634" fill-rule="nonzero" stroke="none" stroke-width="1" stroke-linecap="butt" stroke-linejoin="miter" stroke-miterlimit="10" stroke-dasharray="" stroke-dashoffset="0" font-family="none" font-weight="none" font-size="none" text-anchor="none" style="mix-blend-mode: normal" data-fill-palette-color="quaternary" opacity="1"></path><path transform="translate(0,42.89)" d="M7.13-23.45v0c0 0.807 0.267 1.563 0.8 2.27 0.54 0.713 1.23 1.297 2.07 1.75 0.84 0.46 1.797 0.863 2.87 1.21 1.073 0.347 2.203 0.71 3.39 1.09 1.193 0.387 2.363 0.81 3.51 1.27 1.147 0.46 2.143 1.033 2.99 1.72v0c1.84 1.493 2.76 3.523 2.76 6.09v0c0 1.227-0.287 2.387-0.86 3.48-0.58 1.093-1.387 2.003-2.42 2.73v0c-2.107 1.533-4.923 2.3-8.45 2.3v0c-3.333 0-6.263-0.843-8.79-2.53v0c-1.573-0.993-2.36-1.837-2.36-2.53v0c0-0.613 0.307-1.11 0.92-1.49v0c0.153-0.153 0.347-0.23 0.58-0.23 0.227 0 0.477 0.097 0.75 0.29 0.267 0.187 0.58 0.417 0.94 0.69 0.367 0.267 0.827 0.563 1.38 0.89 0.56 0.32 1.147 0.617 1.76 0.89v0c1.527 0.613 3.02 0.9 4.48 0.86 1.453-0.04 2.62-0.157 3.5-0.35 0.887-0.187 1.673-0.51 2.36-0.97v0c1.453-1 2.2-2.267 2.24-3.8v0c0-1.913-0.937-3.387-2.81-4.42v0c-0.847-0.46-1.797-0.873-2.85-1.24-1.053-0.36-2.163-0.713-3.33-1.06-1.173-0.347-2.333-0.767-3.48-1.26-1.147-0.5-2.163-1.097-3.05-1.79v0c-1.873-1.493-2.81-3.407-2.81-5.74v0c0-1.227 0.297-2.377 0.89-3.45 0.593-1.073 1.407-1.957 2.44-2.65v0c1.993-1.413 4.483-2.14 7.47-2.18v0c4.333 0 7.82 1.4 10.46 4.2v0c0.153 0.227 0.23 0.483 0.23 0.77 0 0.287-0.01 0.527-0.03 0.72-0.013 0.193-0.117 0.387-0.31 0.58v0c-0.267 0.34-0.623 0.51-1.07 0.51-0.44 0-0.907-0.287-1.4-0.86v0c-1.267-0.92-2.283-1.513-3.05-1.78v0c-1.533-0.613-3.027-0.92-4.48-0.92v0c-1.88 0-3.49 0.383-4.83 1.15v0c-1.607 0.92-2.41 2.183-2.41 3.79zM35.52-29.43v0c0 0.613-0.21 1.113-0.63 1.5-0.427 0.38-1.023 0.57-1.79 0.57-0.767 0-1.36-0.19-1.78-0.57-0.42-0.387-0.63-0.887-0.63-1.5v0c0-0.533 0.21-0.99 0.63-1.37 0.42-0.387 1.023-0.58 1.81-0.58 0.787 0 1.38 0.193 1.78 0.58 0.407 0.38 0.61 0.837 0.61 1.37zM31.38-1.72v-18.28c0-0.573 0.19-1.023 0.57-1.35 0.387-0.327 0.733-0.49 1.04-0.49 0.307 0 0.557 0.047 0.75 0.14 0.187 0.1 0.377 0.247 0.57 0.44v0c0.42 0.267 0.63 0.687 0.63 1.26v0 18.28c0 0.573-0.19 1.003-0.57 1.29-0.387 0.287-0.81 0.43-1.27 0.43v0c-0.46 0-0.86-0.143-1.2-0.43-0.347-0.287-0.52-0.717-0.52-1.29zM57.24-1.61v-2.01c-1.913 2.72-4.517 4.08-7.81 4.08v0c-2.993 0-5.333-1.187-7.02-3.56v0c-1.453-2.147-2.18-4.753-2.18-7.82v0c0-5.133 1.703-8.58 5.11-10.34v0c1.153-0.653 2.313-0.98 3.48-0.98 1.167 0 2.133 0.067 2.9 0.2 0.767 0.133 1.497 0.393 2.19 0.78v0c1.453 0.727 2.563 1.72 3.33 2.98v0-11.38c0-0.573 0.193-0.983 0.58-1.23 0.38-0.247 0.8-0.37 1.26-0.37v0c0.46 0 0.863 0.123 1.21 0.37 0.34 0.247 0.51 0.657 0.51 1.23v0 28.05c0 0.54-0.19 0.943-0.57 1.21-0.38 0.267-0.723 0.4-1.03 0.4-0.307 0-0.567-0.03-0.78-0.09-0.213-0.053-0.413-0.177-0.6-0.37v0c-0.387-0.267-0.58-0.65-0.58-1.15zM50.11-2.24v0c4.68 0 7.02-3.007 7.02-9.02v0c0-3.873-1.17-6.403-3.51-7.59v0c-0.88-0.46-1.933-0.69-3.16-0.69-1.227 0-2.243 0.24-3.05 0.72-0.8 0.48-1.47 1.12-2.01 1.92v0c-0.953 1.493-1.43 3.39-1.43 5.69v0c0 3.413 0.803 5.923 2.41 7.53v0c0.92 0.96 2.163 1.44 3.73 1.44zM82.64-1.61v-2.01c-1.913 2.72-4.517 4.08-7.81 4.08v0c-2.993 0-5.33-1.187-7.01-3.56v0c-1.46-2.147-2.19-4.753-2.19-7.82v0c0-5.133 1.707-8.58 5.12-10.34v0c1.147-0.653 2.303-0.98 3.47-0.98 1.173 0 2.143 0.067 2.91 0.2 0.767 0.133 1.493 0.393 2.18 0.78v0c1.453 0.727 2.563 1.72 3.33 2.98v0-11.38c0-0.573 0.193-0.983 0.58-1.23 0.38-0.247 0.8-0.37 1.26-0.37v0c0.46 0 0.863 0.123 1.21 0.37 0.347 0.247 0.52 0.657 0.52 1.23v0 28.05c0 0.54-0.193 0.943-0.58 1.21-0.38 0.267-0.723 0.4-1.03 0.4-0.307 0-0.567-0.03-0.78-0.09-0.207-0.053-0.407-0.177-0.6-0.37v0c-0.387-0.267-0.58-0.65-0.58-1.15zM75.52-2.24v0c4.673 0 7.01-3.007 7.01-9.02v0c0-3.873-1.17-6.403-3.51-7.59v0c-0.88-0.46-1.933-0.69-3.16-0.69-1.227 0-2.24 0.24-3.04 0.72-0.807 0.48-1.48 1.12-2.02 1.92v0c-0.953 1.493-1.43 3.39-1.43 5.69v0c0 3.413 0.803 5.923 2.41 7.53v0c0.92 0.96 2.167 1.44 3.74 1.44zM96.67-29.43v0c0 0.613-0.213 1.113-0.64 1.5-0.42 0.38-1.013 0.57-1.78 0.57-0.767 0-1.36-0.19-1.78-0.57-0.42-0.387-0.63-0.887-0.63-1.5v0c0-0.533 0.21-0.99 0.63-1.37 0.42-0.387 1.023-0.58 1.81-0.58 0.787 0 1.38 0.193 1.78 0.58 0.407 0.38 0.61 0.837 0.61 1.37zM92.53-1.72v-18.28c0-0.573 0.19-1.023 0.57-1.35 0.387-0.327 0.733-0.49 1.04-0.49 0.307 0 0.557 0.047 0.75 0.14 0.187 0.1 0.377 0.247 0.57 0.44v0c0.42 0.267 0.63 0.687 0.63 1.26v0 18.28c0 0.573-0.19 1.003-0.57 1.29-0.387 0.287-0.81 0.43-1.27 0.43v0c-0.46 0-0.86-0.143-1.2-0.43-0.347-0.287-0.52-0.717-0.52-1.29zM118.51-18.1v0c0 0 0-0.71 0-2.13v0c0.033-0.533 0.223-0.937 0.57-1.21 0.347-0.267 0.72-0.4 1.12-0.4 0.4 0 0.793 0.153 1.18 0.46 0.38 0.307 0.57 0.71 0.57 1.21v0 26.84c0 0.533-0.19 0.933-0.57 1.2-0.387 0.273-0.81 0.41-1.27 0.41v0c-0.453 0-0.853-0.137-1.2-0.41-0.347-0.267-0.52-0.667-0.52-1.2v0-10.29c-0.807 1.34-1.917 2.373-3.33 3.1v0c-1.34 0.653-2.807 0.98-4.4 0.98-1.587 0-2.967-0.307-4.14-0.92-1.167-0.613-2.113-1.437-2.84-2.47v0c-1.533-2.033-2.3-4.657-2.3-7.87v0c0-3.027 0.727-5.673 2.18-7.94v0c1.613-2.333 3.913-3.5 6.9-3.5v0c2.68 0 4.903 0.747 6.67 2.24v0c0.493 0.573 0.953 1.207 1.38 1.9zM116.72-4.86c0.58-0.78 1.003-1.697 1.27-2.75 0.267-1.06 0.4-2.163 0.4-3.31 0-1.147-0.113-2.257-0.34-3.33-0.233-1.073-0.617-1.993-1.15-2.76v0c-1.073-1.647-2.913-2.49-5.52-2.53v0c-2.22 0-3.867 0.94-4.94 2.82v0c-0.887 1.493-1.33 3.427-1.33 5.8v0c0 3.833 1.093 6.477 3.28 7.93v0c0.807 0.5 1.833 0.75 3.08 0.75 1.24 0 2.283-0.24 3.13-0.72 0.84-0.48 1.547-1.113 2.12-1.9zM146.9-20.11v18.5c0 0.54-0.203 0.943-0.61 1.21-0.4 0.267-0.743 0.4-1.03 0.4-0.287 0-0.547-0.03-0.78-0.09-0.227-0.053-0.417-0.177-0.57-0.37v0c-0.387-0.267-0.58-0.65-0.58-1.15v0-2.01c-0.92 2.033-2.603 3.297-5.05 3.79v0c-0.767 0.193-1.593 0.29-2.48 0.29-0.88 0-1.797-0.153-2.75-0.46-0.96-0.307-1.787-0.803-2.48-1.49v0c-1.527-1.46-2.29-3.647-2.29-6.56v0-12.06c0-0.54 0.17-0.963 0.51-1.27 0.347-0.307 0.75-0.46 1.21-0.46v0c0.46 0 0.863 0.153 1.21 0.46 0.34 0.307 0.51 0.73 0.51 1.27v0 12.35c0 2.067 0.423 3.503 1.27 4.31v0c0.84 0.807 2.103 1.21 3.79 1.21v0c2.833 0 4.787-1.15 5.86-3.45v0c0.427-0.807 0.657-1.727 0.69-2.76v0-11.66c0-0.54 0.193-0.963 0.58-1.27 0.38-0.307 0.8-0.46 1.26-0.46v0c0.46 0 0.863 0.153 1.21 0.46 0.347 0.307 0.52 0.73 0.52 1.27zM157.76-29.43v0c0 0.613-0.21 1.113-0.63 1.5-0.427 0.38-1.023 0.57-1.79 0.57-0.76 0-1.353-0.19-1.78-0.57-0.42-0.387-0.63-0.887-0.63-1.5v0c0-0.533 0.21-0.99 0.63-1.37 0.427-0.387 1.03-0.58 1.81-0.58 0.787 0 1.383 0.193 1.79 0.58 0.4 0.38 0.6 0.837 0.6 1.37zM153.62-1.72v-18.28c0-0.573 0.193-1.023 0.58-1.35 0.38-0.327 0.723-0.49 1.03-0.49 0.307 0 0.557 0.047 0.75 0.14 0.187 0.1 0.377 0.247 0.57 0.44v0c0.42 0.267 0.63 0.687 0.63 1.26v0 18.28c0 0.573-0.19 1.003-0.57 1.29-0.387 0.287-0.81 0.43-1.27 0.43v0c-0.453 0-0.853-0.143-1.2-0.43-0.347-0.287-0.52-0.717-0.52-1.29z" fill="#282634" fill-rule="nonzero" stroke="none" stroke-width="1" stroke-linecap="butt" stroke-linejoin="miter" stroke-miterlimit="10" stroke-dasharray="" stroke-dashoffset="0" font-family="none" font-weight="none" font-size="none" text-anchor="none" style="mix-blend-mode: normal" data-fill-palette-color="quaternary" opacity="1"></path></g></svg></g></svg></g></svg></g></svg></g><g transform="matrix(1,0,0,1,0,32.64523343972044)"><svg viewBox="0 0 142.38719999999998 62.745177729673564" height="62.745177729673564" width="142.38719999999998"><g><svg xmlns="http://www.w3.org/2000/svg" xmlns:xlink="http://www.w3.org/1999/xlink" version="1.1" x="0" y="0" viewBox="1.971 12.886 46.196 20.357000000000003" enable-background="new 0 0 50 50" xml:space="preserve" height="62.745177729673564" width="142.38719999999998" class="icon-icon-0" data-fill-palette-color="quaternary" id="icon-0"><g fill="#282634" data-fill-palette-color="quaternary"><path fill="#282634" d="M14.132 33.243h21.89V12.886h-21.89V33.243zM16.251 15.009h17.648v16.115H16.251V15.009z" data-fill-palette-color="quaternary"></path><path fill="#282634" d="M10.554 16.246c-0.414-0.414-1.086-0.414-1.499 0l-7.084 7.083 7.084 7.084c0.208 0.207 0.479 0.311 0.75 0.311 0.271 0 0.543-0.106 0.752-0.311 0.412-0.413 0.412-1.086 0-1.499l-5.586-5.585 5.586-5.584C10.97 17.329 10.97 16.658 10.554 16.246z" data-fill-palette-color="quaternary"></path><path fill="#282634" d="M39.583 16.101c-0.413 0.415-0.413 1.085 0 1.5l5.583 5.583-5.583 5.583c-0.413 0.416-0.413 1.09 0 1.501 0.208 0.209 0.481 0.31 0.751 0.31 0.272 0 0.543-0.104 0.751-0.31l7.082-7.083-7.082-7.083C40.669 15.686 39.997 15.686 39.583 16.101z" data-fill-palette-color="quaternary"></path></g></svg></g></svg></g></svg></g></svg></g></svg></g><defs></defs></svg><rect width="384" height="360" fill="none" stroke="none" visibility="hidden"></rect></g></svg></g></svg>